# xmcd
#
# Track frame offsets: 
#        150
#        14843
#        28105
#        40165
#        52451
#        65116
#        80028
#        93144
#        110786
#        122762
#        134438
#        146570
#        162363
#
# Disc length: 2393 seconds
#
# Revision: 0
# Processed by: cddbd v1.5.2PL0 Copyright (c) Steve Scherf et al.
# Submitted via: ExactAudioCopyFreeDBPlugin 1.0
#
DISCID=c809570d
DTITLE=Lluis Coloma - Rocking My Blues In Chicago
DYEAR=2011
DGENRE=Blues
TTITLE0=Vicksburg Blues
TTITLE1=Chicago Breakdown
TTITLE2=Marie
TTITLE3=How Long Blues
TTITLE4=Shreveport Farewell
TTITLE5=St. Loius Blues
TTITLE6=Pinetop's Boogie Woogie
TTITLE7=After Hours
TTITLE8=Izy Mae
TTITLE9=Honky Tonk Train Blues
TTITLE10=Yancey Special
TTITLE11=St James Infirmary
TTITLE12=I Keep On Drinking
EXTD=
EXTT0=
EXTT1=
EXTT2=
EXTT3=
EXTT4=
EXTT5=
EXTT6=
EXTT7=
EXTT8=
EXTT9=
EXTT10=
EXTT11=
EXTT12=
PLAYORDER=
